<mxfile host="app.diagrams.net" agent="Mozilla/5.0 (Windows NT 10.0; Win64; x64) AppleWebKit/537.36 (KHTML, like Gecko) Chrome/135.0.0.0 Safari/537.36" version="26.2.9">
  <diagram name="PÃ¡gina-1" id="jhGnCxQ4ZXMBEsUATwom">
    <mxGraphModel dx="2068" dy="1109" grid="1" gridSize="10" guides="1" tooltips="1" connect="1" arrows="1" fold="1" page="1" pageScale="1" pageWidth="827" pageHeight="1169" math="0" shadow="0">
      <root>
        <mxCell id="0" />
        <mxCell id="1" parent="0" />
        <mxCell id="Ey5vjXZlRMs2H5rNJdPo-4" style="edgeStyle=orthogonalEdgeStyle;rounded=0;orthogonalLoop=1;jettySize=auto;html=1;" edge="1" parent="1" source="Ey5vjXZlRMs2H5rNJdPo-1" target="Ey5vjXZlRMs2H5rNJdPo-2">
          <mxGeometry relative="1" as="geometry" />
        </mxCell>
        <mxCell id="Ey5vjXZlRMs2H5rNJdPo-7" style="edgeStyle=orthogonalEdgeStyle;rounded=0;orthogonalLoop=1;jettySize=auto;html=1;" edge="1" parent="1" source="Ey5vjXZlRMs2H5rNJdPo-1" target="Ey5vjXZlRMs2H5rNJdPo-6">
          <mxGeometry relative="1" as="geometry" />
        </mxCell>
        <mxCell id="Ey5vjXZlRMs2H5rNJdPo-1" value="" style="image;aspect=fixed;html=1;points=[];align=center;fontSize=12;image=img/lib/azure2/networking/Virtual_Networks.svg;" vertex="1" parent="1">
          <mxGeometry x="137" y="410" width="134" height="80" as="geometry" />
        </mxCell>
        <mxCell id="Ey5vjXZlRMs2H5rNJdPo-2" value="" style="image;aspect=fixed;html=1;points=[];align=center;fontSize=12;image=img/lib/azure2/networking/Subnet.svg;" vertex="1" parent="1">
          <mxGeometry x="120" y="310" width="68" height="40.72" as="geometry" />
        </mxCell>
        <mxCell id="Ey5vjXZlRMs2H5rNJdPo-5" value="" style="image;aspect=fixed;html=1;points=[];align=center;fontSize=12;image=img/lib/azure2/general/Service_Bus.svg;" vertex="1" parent="1">
          <mxGeometry x="400" y="170" width="70" height="60" as="geometry" />
        </mxCell>
        <mxCell id="Ey5vjXZlRMs2H5rNJdPo-6" value="" style="image;aspect=fixed;html=1;points=[];align=center;fontSize=12;image=img/lib/azure2/networking/Subnet.svg;" vertex="1" parent="1">
          <mxGeometry x="230" y="310" width="68" height="40.72" as="geometry" />
        </mxCell>
        <mxCell id="Ey5vjXZlRMs2H5rNJdPo-9" value="" style="image;aspect=fixed;html=1;points=[];align=center;fontSize=12;image=img/lib/azure2/containers/Container_Registries.svg;" vertex="1" parent="1">
          <mxGeometry x="600" y="340" width="68" height="61" as="geometry" />
        </mxCell>
        <mxCell id="Ey5vjXZlRMs2H5rNJdPo-10" value="acraz2003dth" style="text;whiteSpace=wrap;" vertex="1" parent="1">
          <mxGeometry x="590" y="300" width="110" height="40" as="geometry" />
        </mxCell>
        <mxCell id="Ey5vjXZlRMs2H5rNJdPo-13" value="sb-az2003-dth" style="text;html=1;align=center;verticalAlign=middle;resizable=0;points=[];autosize=1;strokeColor=none;fillColor=none;" vertex="1" parent="1">
          <mxGeometry x="385" y="130" width="100" height="30" as="geometry" />
        </mxCell>
      </root>
    </mxGraphModel>
  </diagram>
</mxfile>
